# xmcd
#
# Track frame offsets:
#	150
#	14787
#	32866
#	53397
#	71193
#	88998
#	108869
#	133384
#	152959
#	179218
#	195143
#	210224
#
# Disc length: 2941 seconds
#
# Revision: 0
# Processed by: cddbd v1.5.2PL0 Copyright (c) Steve Scherf et al.
# Submitted via: EasyCDDAExtractor 15.3.0.1
#
DISCID=ac0b7b0c
DTITLE=ฅาราวาน - คนไกลบ้าน
DYEAR=1900
DGENRE=Country
TTITLE0=คนไกลบ้าน
TTITLE1=เราและเธอ
TTITLE2=ดวงจำปา
TTITLE3=เสือร้องไห้
TTITLE4=ทางสีขาว
TTITLE5=คนจร
TTITLE6=สันติภาพ
TTITLE7=ขยม
TTITLE8=อินโดจีน
TTITLE9=กัมพูชา
TTITLE10=ความเป็นมา
TTITLE11=คนไกลบ้าน 2
EXTD=
EXTT0=
EXTT1=
EXTT2=
EXTT3=
EXTT4=
EXTT5=
EXTT6=
EXTT7=
EXTT8=
EXTT9=
EXTT10=
EXTT11=
PLAYORDER=
